<svg xmlns="http://www.w3.org/2000/svg" width="30" height="20" viewBox="0 0 600 400" xml:space="preserve"><path fill="none" d="M397 401H1V1h600v400H397m27.39-160.456v-37.606h5.963c41.821 0 83.642.024 125.463-.016 10.848-.01 17.325-6 17.358-16.286.096-30.823.1-61.648 0-92.471-.034-10.554-5.94-16.103-16.674-16.16-6.45-.035-12.899-.007-19.657-.007 0-8.783.063-17.08-.018-25.374-.079-7.94-3.319-11.204-11.29-11.207-73.81-.03-147.621-.034-221.432.004-8.106.004-11.091 3.142-11.096 11.293-.02 32.99-.02 65.98-.003 98.97.005 8.202 3.26 11.461 11.504 11.463 73.644.015 147.289.016 220.933-.002 8.157-.002 11.373-3.312 11.393-11.649.036-14.662.003-29.324.02-43.986.002-1.608.14-3.216.215-4.84h11.502v75.804h-5.843c-41.487 0-82.975-.005-124.462.003-12.796.002-18.147 5.394-18.162 18.306-.017 14.662.002 29.324-.015 43.987-.002 1.432-.153 2.865-.249 4.53-5.076 0-9.73.089-14.38-.027-3.776-.095-5.384 1.436-5.371 5.34.099 29.489-.097 58.98.155 88.468.142 16.617 14.312 30.632 30.552 30.954 17.736.352 32.858-12.285 33.16-29.098.542-30.313.202-60.641.302-90.963.011-3.525-1.706-4.728-4.922-4.686-3.832.05-7.676-.172-11.493.067-3.036.19-3.824-1.148-3.452-4.81M98.997 123.5v81.255H76.999v22.088h21.982c0 2.045.005 3.674 0 5.303-.087 25.83-.49 51.664-.091 77.487.143 9.23-2.38 16.953-7.836 24.049-.913 1.187-1.723 2.452-2.59 3.675-9.838 13.893-23.103 21.722-40.24 22.51-4.767.218-9.553.032-14.914.032v22.282c32.478 3.01 58.566-8.283 76.789-36.428 17.756 26.721 48.899 40.773 78.248 36.027l-1.083-21.66c-2.256 0-3.75-.08-5.232.012-21.104 1.302-37.87-6.871-50.84-23.287-6.506-8.233-10.772-16.802-10.401-28.137.833-25.47.26-50.985.26-76.482v-5.482h21.96v-22.25h-21.96v-5.966c0-32.329.294-64.663-.185-96.985-.141-9.484 1.949-17.494 7.541-25.066 12.268-16.61 27.766-26.975 49.095-26.868 3.12.015 6.24.002 10.04.002V27.314c-15.008-.802-29.72-.048-43.6 7.157-13.625 7.073-25.309 16.192-33.954 29.838-8.595-13.434-19.139-23.646-33.21-30.154-14.041-6.495-28.642-7.867-43.307-6.781V49.62c4.253 0 7.742.003 11.23 0 7.756-.006 14.966 1.724 22.189 4.873 10.95 4.774 18.144 12.992 24.784 22.4 5.426 7.69 8.207 15.646 7.43 25.118-.555 6.787-.107 13.657-.107 21.489z"/><path fill="#020202" d="M424.39 241.051c-.371 3.156.417 4.494 3.453 4.304 3.817-.239 7.661-.017 11.493-.067 3.216-.042 4.933 1.161 4.922 4.686-.1 30.322.24 60.65-.303 90.963-.3 16.813-15.423 29.45-33.159 29.098-16.24-.322-30.41-14.337-30.552-30.954-.252-29.488-.056-58.98-.155-88.469-.013-3.903 1.595-5.434 5.371-5.34 4.65.117 9.304.028 14.38.028.096-1.665.247-3.098.249-4.53.017-14.663-.002-29.325.015-43.987.015-12.912 5.366-18.304 18.162-18.306 41.487-.008 82.975-.003 124.462-.003h5.843V102.67H537.07c-.075 1.624-.213 3.232-.215 4.84-.017 14.662.016 29.324-.02 43.986-.02 8.337-3.236 11.647-11.393 11.649-73.644.018-147.289.017-220.933.002-8.244-.002-11.5-3.261-11.504-11.462-.016-32.99-.017-65.98.003-98.97.005-8.152 2.99-11.29 11.096-11.294 73.81-.038 147.622-.034 221.433-.004 7.97.003 11.21 3.266 11.289 11.207.081 8.295.018 16.59.018 25.374 6.758 0 13.208-.028 19.657.006 10.734.058 16.64 5.607 16.674 16.16.1 30.824.096 61.649 0 92.472-.033 10.286-6.51 16.275-17.358 16.286-41.821.04-83.642.016-125.463.016h-5.962v38.113z"/><path fill="#040404" d="M98.997 123c0-7.332-.448-14.202.108-20.989.776-9.472-2.005-17.429-7.431-25.118-6.64-9.408-13.834-17.626-24.784-22.4-7.223-3.15-14.433-4.879-22.189-4.873-3.488.003-6.977 0-11.23 0V27.374c14.665-1.086 29.266.286 43.307 6.78 14.071 6.51 24.615 16.72 33.21 30.155 8.645-13.646 20.33-22.765 33.954-29.838 13.88-7.205 28.592-7.959 43.6-7.157V49.61c-3.8 0-6.92.013-10.04-.002-21.329-.107-36.827 10.259-49.095 26.868-5.592 7.572-7.682 15.582-7.541 25.066.479 32.322.185 64.656.186 96.985v5.966h21.958v22.25h-21.958v5.482c0 25.497.572 51.013-.261 76.482-.37 11.335 3.895 19.904 10.4 28.137 12.97 16.416 29.737 24.589 50.84 23.287 1.483-.092 2.977-.012 5.233-.012l1.083 21.66c-29.349 4.746-60.492-9.306-78.248-36.027-18.223 28.145-44.31 39.438-76.79 36.428v-22.282c5.362 0 10.148.186 14.914-.033 17.138-.787 30.403-8.616 40.242-22.509.866-1.223 1.676-2.488 2.589-3.675 5.455-7.096 7.979-14.82 7.836-24.05-.4-25.822.004-51.656.09-77.486.006-1.63 0-3.258 0-5.303H77v-22.088h21.997V123z"/></svg>